<svg width="24" height="24" viewBox="0 0 24 24" xmlns="http://www.w3.org/2000/svg">
    <defs>
        <clipPath id="jbwk8zfyra">
            <path d="M9 0a9 9 0 1 1 0 18A9 9 0 0 1 9 0zm0 4a3 3 0 0 0-1 5.83v1.276c-1.703.383-2.894 1.805-3.767 4.319A7.96 7.96 0 0 0 9 17a7.96 7.96 0 0 0 4.767-1.575c-.873-2.514-2.064-3.936-3.767-4.319V9.83A3.001 3.001 0 0 0 9 4zm0-3a8 8 0 0 0-5.58 13.733c.757-2.017 1.84-3.608 3.49-4.322a4 4 0 1 1 4.182 0c1.649.714 2.731 2.305 3.488 4.322A8 8 0 0 0 9 1z"/>
        </clipPath>
    </defs>
    <g clip-path="url(#jbwk8zfyra)" transform="translate(3 3)">
        <path fill="#0055D8" d="M0 0h18v18H0V0z"/>
    </g>
</svg>
