<svg width="24" height="24" viewBox="0 0 24 24" xmlns="http://www.w3.org/2000/svg">
    <defs>
        <clipPath id="sr7hldqffa">
            <path d="M5.87.281a1 1 0 0 1-.003 1.42L3.385 4.183H15l.117.006a1 1 0 0 1 0 1.987L15 6.183H3.385l2.482 2.481c.393.393.4 1.022.02 1.403a1.001 1.001 0 0 1-1.417 0L.294 5.891a1.001 1.001 0 0 1 0-1.417L4.47.298a.991.991 0 0 1 1.4-.017z"/>
        </clipPath>
    </defs>
    <g clip-path="url(#sr7hldqffa)" transform="translate(4 6.822)">
        <path fill="#FFF" d="M0 0h16v10.36H0V0z"/>
    </g>
</svg>
