<?xml version="1.0" encoding="UTF-8"?><svg version="1.1" width="24px" height="24px" viewBox="0 0 24.0 24.0" xmlns="http://www.w3.org/2000/svg" xmlns:xlink="http://www.w3.org/1999/xlink"><defs><clipPath id="i0"><path d="M11.5302405,0.293601915 L15.7064485,4.46980983 C16.0976561,4.86101752 16.0980554,5.49489127 15.7064169,5.88652978 L11.5300227,10.062924 C11.1387975,10.4541491 10.5109412,10.460594 10.1298491,10.079502 C9.73871897,9.68837184 9.73681269,9.0561309 10.1329551,8.65998847 L12.6147896,6.17815401 L1,6.17815401 L0.883378875,6.17142628 C0.38604019,6.11366117 0,5.69098985 0,5.17815401 C0,4.66531817 0.38604019,4.24264685 0.883378875,4.18488174 L1,4.17815401 L12.6147896,4.17815401 L10.1331623,1.6965267 C9.74034012,1.30370454 9.73260055,0.674553549 10.1136926,0.293461467 C10.5048228,-0.0976686524 11.1386195,-0.0980191277 11.5302405,0.293601915 Z"></path></clipPath></defs><g transform="translate(3.9999999999992006 6.821845991977882)"><g clip-path="url(#i0)"><polygon points="0,3.33066907e-16 16,3.33066907e-16 16,10.3608963 0,10.3608963 0,3.33066907e-16" stroke="none" fill="#001D41"></polygon></g></g></svg>