<?xml version="1.0" encoding="UTF-8"?><svg version="1.1" width="24px" height="24px" viewBox="0 0 24.0 24.0" xmlns="http://www.w3.org/2000/svg" xmlns:xlink="http://www.w3.org/1999/xlink"><defs><clipPath id="i0"><path d="M13.8333333,0 C13.9600744,0 14.0808162,0.0480522148 14.1723248,0.132453076 L14.2351119,0.202386225 L16.9017786,3.80238622 C16.9496202,3.86697244 16.980949,3.94180555 16.9936232,4.02039661 L17,4.1 L17,16.7 C17,17.9160044 16.0647023,18.9136601 14.8783336,18.9946869 L14.7222222,19 L2.27777778,19 C1.07087018,19 0.0852847064,18.0530111 0.00524790925,16.8573136 L0,16.7 L0,4.1 C0,4.01962462 0.0193683083,3.94084422 0.0559633857,3.87014774 L0.0982214033,3.80238622 L2.76488807,0.202386225 C2.84032786,0.100542513 2.95080942,0.0321215564 3.07309875,0.00882692201 L3.16666667,0 L13.8333333,0 Z M16,4.5 L1,4.5 L1,16.7 C1,17.3294321 1.43907101,17.8526705 2.02066292,17.9736453 L2.14736312,17.9933034 L2.27777778,18 L14.7222222,18 C15.3825009,18 15.9278039,17.489664 15.9933876,16.833145 L16,16.7 L16,4.5 Z M11.5,8 C11.7761424,8 12,8.22385763 12,8.5 C12,10.4329966 10.4329966,12 8.5,12 C6.56700338,12 5,10.4329966 5,8.5 C5,8.22385763 5.22385763,8 5.5,8 C5.77614237,8 6,8.22385763 6,8.5 C6,9.88071187 7.11928813,11 8.5,11 C9.88071187,11 11,9.88071187 11,8.5 C11,8.22385763 11.2238576,8 11.5,8 Z M13.581,1 L3.418,1 L1.565,3.5 L15.433,3.5 L13.581,1 Z"></path></clipPath></defs><g transform="translate(3.5 2.5)"><g clip-path="url(#i0)"><polygon points="0,0 17,0 17,19 0,19 0,0" stroke="none" fill="#FFFFFF"></polygon></g></g></svg>