<svg width="24" height="24" viewBox="0 0 24 24" xmlns="http://www.w3.org/2000/svg">
    <defs>
        <clipPath id="tk73qwerfa">
            <path d="M13.833 0a.5.5 0 0 1 .34.132l.062.07 2.667 3.6a.5.5 0 0 1 .092.218L17 4.1v12.6a2.291 2.291 0 0 1-2.122 2.295l-.156.005H2.278a2.287 2.287 0 0 1-2.273-2.143L0 16.7V4.1a.5.5 0 0 1 .056-.23l.042-.068 2.667-3.6A.5.5 0 0 1 3.073.01L3.167 0h10.666zM16 4.5H1v12.2c0 .63.44 1.153 1.02 1.274l.127.02.13.006h12.445c.66 0 1.206-.51 1.271-1.167L16 16.7V4.5zM11.5 8a.5.5 0 0 1 .5.5 3.5 3.5 0 0 1-7 0 .5.5 0 0 1 1 0 2.5 2.5 0 0 0 5 0 .5.5 0 0 1 .5-.5zm2.081-7H3.418L1.565 3.5h13.868L13.581 1z"/>
        </clipPath>
    </defs>
    <g clip-path="url(#tk73qwerfa)" transform="translate(3.5 2.5)">
        <path fill="#001D41" d="M0 0h17v19H0V0z"/>
    </g>
</svg>
