<svg width="24" height="24" viewBox="0 0 24 24" xmlns="http://www.w3.org/2000/svg">
    <path d="M16 1.5a.5.5 0 0 1 .5.5v1.5H19a2.5 2.5 0 0 1 2.495 2.336L21.5 6v14a2.5 2.5 0 0 1-2.5 2.5H5A2.5 2.5 0 0 1 2.5 20V6A2.5 2.5 0 0 1 5 3.5h2.5V2a.5.5 0 0 1 1 0v1.5h7V2a.5.5 0 0 1 .5-.5zm4.5 9h-17V20a1.5 1.5 0 0 0 1.356 1.493L5 21.5h14a1.5 1.5 0 0 0 1.5-1.5v-9.5zm-13-6H5A1.5 1.5 0 0 0 3.5 6v3.5h17V6a1.5 1.5 0 0 0-1.356-1.493L19 4.5h-2.5V6a.5.5 0 1 1-1 0V4.5h-7V6a.5.5 0 0 1-1 0V4.5z" fill="#001E42" fill-rule="nonzero"/>
</svg>
