<?xml version="1.0" encoding="UTF-8"?>
<svg width="20px" height="12px" viewBox="0 0 20 12" version="1.1" xmlns="http://www.w3.org/2000/svg" xmlns:xlink="http://www.w3.org/1999/xlink">
    <title>Icons / Video</title>
    <defs>
        <filter id="filter-1">
            <feColorMatrix in="SourceGraphic" type="matrix" values="0 0 0 0 1.000000 0 0 0 0 1.000000 0 0 0 0 1.000000 0 0 0 1.000000 0"></feColorMatrix>
        </filter>
    </defs>
    <g id="rich-text-Springer" stroke="none" stroke-width="1" fill="none" fill-rule="evenodd">
        <g id="Blue-Hero-Collection-XL-low" transform="translate(-44.000000, -538.000000)">
            <g id="Teaser-/-Large-Teaser-w-IMG-(On-Demand)-–-Serif" transform="translate(30.000000, 91.000000)">
                <g id="Info-Box" transform="translate(0.000000, 40.000000)">
                    <g id="Button" transform="translate(0.000000, 389.000000)">
                        <g id="Icons-/-Video" transform="translate(12.000000, 12.000000)" filter="url(#filter-1)">
                            <g>
                                <path d="M13,6 C14.1045695,6 15,6.8954305 15,8 L15,16 C15,17.1045695 14.1045695,18 13,18 L4,18 C2.8954305,18 2,17.1045695 2,16 L2,8 C2,6.8954305 2.8954305,6 4,6 L13,6 Z M21.8058818,7.38349419 C21.9319915,7.55514344 22,7.76257505 22,7.97557062 L22,16.0244294 C22,16.5767141 21.5522847,17.0244294 21,17.0244294 C20.7870044,17.0244294 20.5795728,16.9564208 20.4079236,16.8303112 L16.5745902,14.0139847 C16.3181328,13.825567 16.1666667,13.5263349 16.1666667,13.2081028 L16.1666667,10.7918972 C16.1666667,10.4736651 16.3181328,10.174433 16.5745902,9.98601534 L20.4079236,7.16968881 C20.8529998,6.84269402 21.478887,6.93841795 21.8058818,7.38349419 Z" id="Combined-Shape" fill="#000000"></path>
                            </g>
                        </g>
                    </g>
                </g>
            </g>
        </g>
    </g>
</svg>