<?xml version="1.0" encoding="UTF-8"?><svg version="1.1" width="24px" height="24px" viewBox="0 0 24.0 24.0" xmlns="http://www.w3.org/2000/svg" xmlns:xlink="http://www.w3.org/1999/xlink"><defs><clipPath id="i0"><path d="M1.69712061,0.293601915 L5.87332852,4.46980983 C6.26453621,4.86101752 6.26493544,5.49489127 5.87329693,5.88652978 L1.69690272,10.062924 C1.30567759,10.4541491 0.677821235,10.460594 0.296729154,10.079502 C-0.0944009663,9.68837184 -0.0963072481,9.0561309 0.299835183,8.65998847 L2.78166965,6.17815401 L3.79534498,5.18044814 L2.78166965,4.17815401 L0.300042343,1.6965267 C-0.0927798171,1.30370454 -0.100519382,0.674553549 0.280572699,0.293461467 C0.671702819,-0.0976686524 1.30549956,-0.0980191277 1.69712061,0.293601915 Z"></path></clipPath></defs><g transform="translate(9.097008103481642 6.902991896518357)"><g clip-path="url(#i0)"><polygon points="7.21644966e-16,-3.33066907e-16 6.16688006,-3.33066907e-16 6.16688006,10.3608963 7.21644966e-16,10.3608963 7.21644966e-16,-3.33066907e-16" stroke="none" fill="#FFFFFF"></polygon></g></g></svg>