<?xml version="1.0" encoding="utf-8"?>
<!-- Generator: Adobe Illustrator 25.3.0, SVG Export Plug-In . SVG Version: 6.00 Build 0)  -->
<svg version="1.1" id="Layer_1" xmlns="http://www.w3.org/2000/svg" xmlns:xlink="http://www.w3.org/1999/xlink" x="0px" y="0px"
	 viewBox="0 0 80 80" style="enable-background:new 0 0 80 80;" xml:space="preserve">
<style type="text/css">
	.st0{fill:#024BA6;}
</style>
<g id="_xD83E__xDDF0_-Symbols">
	<g id="Teaser_x2F_Desktop_x2F_Journal-Issue----TOC-w-CME" transform="translate(-490.000000, -45.000000)">
		<g id="Content" transform="translate(20.000000, 20.000000)">
			<path id="CME-Badge" class="st0" d="M510,25c22.1,0,40,17.9,40,40s-17.9,40-40,40c-22.1,0-40-17.9-40-40S487.9,25,510,25z
				 M510,28c-20.4,0-37,16.6-37,37s16.6,37,37,37c20.4,0,37-16.6,37-37S530.4,28,510,28z M498.1,76.4c2.7,0,4.7,1.8,4.9,4.2h-2.3
				c-0.2-1.3-1.2-2.2-2.6-2.2c-1.8,0-2.9,1.5-2.9,3.9s1.1,3.9,2.9,3.9c1.4,0,2.4-0.8,2.6-2h2.3c-0.2,2.4-2.2,4.1-4.9,4.1
				c-3.3,0-5.3-2.3-5.3-5.9S494.8,76.4,498.1,76.4z M507.9,76.7l3.1,7.8h0.1l3.1-7.8h2.8V88h-2.2v-7.6h-0.1l-2.9,7.1h-1.6l-2.9-7.1
				h-0.1V88h-2.2V76.7H507.9z M527.3,76.7v1.9h-5.1v2.7h4.8v1.8h-4.8v2.9h5.1V88h-7.5V76.7H527.3z M522.4,68v2.8H500V68H522.4z
				 M509.4,39.4c0.6,0,1.2,0.1,1.7,0.2c0.1-0.3,0.4-0.5,0.7-0.5c0.4,0,0.7,0.3,0.7,0.7V40c1,0.3,2,0.8,2.8,1.3
				c0.1-0.2,0.3-0.3,0.6-0.3c0.4,0,0.7,0.3,0.7,0.7c0,0.2,0,0.3-0.1,0.4c0.8,0.7,1.5,1.5,2.1,2.3c0.1-0.1,0.2-0.1,0.3-0.1
				c0.4,0,0.8,0.3,0.8,0.7c0,0.3-0.1,0.5-0.4,0.6c0.5,0.9,0.9,1.8,1.1,2.8c0,0,0.1,0,0.2,0c0.4,0,0.7,0.3,0.7,0.7
				c0,0.4-0.2,0.7-0.5,0.7c0.2,1,0.3,2,0.4,3c0.4,0,0.8,0.3,0.8,0.7c0,0.4-0.3,0.7-0.7,0.8c0,1,0,2.1-0.1,3.1c0.4,0,0.7,0.4,0.7,0.8
				c0,0.4-0.3,0.7-0.8,0.7h0c-0.2,1-0.4,2.1-0.6,3.2h2v1.4H500v-1.4h1.9c0.3-4.5,4.6-6.1,7-9.8h-2.8c-1.3,0.5-3.3,3.4-3.3,5.1h-3.5
				l0-1.4l-1.1,0.9l-3-3.5c0,0-0.1-0.2-0.1-0.3c0-0.1,0-0.2,0-0.2l4.8-6.5l0.9-2.6l1.3-0.5l1.3-1.9l-0.5-3.2c1.3-0.5,2.5,0,3.1,0.6
				c0-0.7,0-1.3,0-2C508.2,36.8,509.1,38,509.4,39.4z M507.3,38.5L507.3,38.5c0,0.4,0,1.9-0.4,3.4l-1.3-0.2c0-1.2-0.5-1.7-1.2-2
				l0.3,2.3l-0.8,1.2l0.4,1.1l-2.5,0.9l-0.7,2.1l-4.4,6.1l1.7,2l1.9-1.6l0.4,0.3v2.3h1c0.4-1.7,1.8-3.6,3.1-4.6l-0.7-0.9l1-0.9
				l1,1.2l0.5,0c1,0,3.1,0,3.1,0c0.5-1.1,0.9-2.5,0.9-4.1h1.4c0,5.4-2.7,7.6-6.1,10.9c-1.2,1.2-2.3,2.6-2.5,4.4H519
				c2.8-11.4-0.5-20.4-9.3-21.5c0,0.5,0,0.9,0,1.2c0,0.6,0,1,0,1l-1.4-0.2C508.4,42.5,508.5,39.2,507.3,38.5z M498.3,51.8l0.9,0
				c0,0.6,0,1.6-0.4,2l-1-0.4C498.1,53,498.3,52.4,498.3,51.8z M504.6,45.7l0,0.9l-2.1,1.1l-0.1-1.8L504.6,45.7z"/>
		</g>
	</g>
</g>
</svg>
