<?xml version="1.0" encoding="UTF-8" standalone="no"?>
<svg
   width="24"
   height="24"
   viewBox="0 0 24 24"
   version="1.1"
   id="svg13"
   xmlns="http://www.w3.org/2000/svg"
   xmlns:svg="http://www.w3.org/2000/svg">
    <path d="M 0 0 L 24 0 L 24 24 L 0 24 Z" fill="none" />
    <path
       d="M 21 7 L 21 21 C 21 22.1 20.1 23 19 23 L 7 23 L 7 21 L 19 21 L 19 7 L 21 7 Z M 15 1 C 16.1 1 17 1.9 17 3 L 17 17 C 17 18.1 16.1 19 15 19 L 4 19 C 2.9 19 2 18.1 2 17 L 2 3 C 2 1.9 2.9 1 4 1 Z M 15 3 L 4 3 L 4 17 L 15 17 L 15 3 Z M 13 13 L 13 15 L 6 15 L 6 13 L 13 13 Z M 13 10 L 13 12 L 6 12 L 6 10 L 13 10 Z M 13 5 L 13 9 L 6 9 L 6 5 L 13 5 Z" />
</svg>
