<?xml version="1.0" encoding="utf-8"?>
<!-- Generator: Adobe Illustrator 15.1.0, SVG Export Plug-In . SVG Version: 6.00 Build 0)  -->
<!DOCTYPE svg PUBLIC "-//W3C//DTD SVG 1.1//EN" "http://www.w3.org/Graphics/SVG/1.1/DTD/svg11.dtd">
<svg version="1.1" id="Ebene_1" xmlns="http://www.w3.org/2000/svg" xmlns:xlink="http://www.w3.org/1999/xlink" x="0px" y="0px"
	 width="40px" height="40px" viewBox="0 0 40 40" enable-background="new 0 0 40 40" xml:space="preserve">
<g>
	<defs>
		<rect id="SVGID_1_" width="40" height="40"/>
	</defs>
	<clipPath id="SVGID_2_">
		<use xlink:href="#SVGID_1_"  overflow="visible"/>
	</clipPath>
	<path clip-path="url(#SVGID_2_)" fill="#1D71B8" d="M39.686,20.034c0,10.828-8.778,19.607-19.607,19.607S0.47,30.862,0.47,20.034
		c0-10.83,8.779-19.608,19.608-19.608S39.686,9.205,39.686,20.034"/>
	<path clip-path="url(#SVGID_2_)" fill="#FFFFFF" d="M20.078,37.449c-9.603,0-17.415-7.812-17.415-17.415
		c0-9.603,7.812-17.416,17.415-17.416c9.603,0,17.415,7.812,17.415,17.416C37.493,29.637,29.681,37.449,20.078,37.449 M20.078,3.363
		c-9.192,0-16.67,7.479-16.67,16.671s7.479,16.67,16.67,16.67c9.192,0,16.671-7.478,16.671-16.67S29.271,3.363,20.078,3.363"/>
	<path clip-path="url(#SVGID_2_)" fill="none" stroke="#FFFFFF" stroke-width="0.5534" stroke-miterlimit="10" d="M20.078,37.449
		c-9.603,0-17.415-7.812-17.415-17.415c0-9.603,7.812-17.416,17.415-17.416c9.603,0,17.415,7.812,17.415,17.416
		C37.493,29.637,29.681,37.449,20.078,37.449z M20.078,3.363c-9.192,0-16.67,7.479-16.67,16.671s7.479,16.67,16.67,16.67
		c9.192,0,16.671-7.478,16.671-16.67S29.271,3.363,20.078,3.363z"/>
	<path clip-path="url(#SVGID_2_)" fill="#FFFFFF" d="M26.462,20.38l4.622-2.728l-11.08-7.174l-11.87,7.674
		c1.583,0.728,3.426,1.35,4.98,2.224c-0.251,1.86-0.285,3.153-0.297,3.752c-0.092,4.353,5.775,4.459,7.073,4.459
		c1.456,0,7.226-0.695,7.003-4.228C26.853,23.683,26.526,20.786,26.462,20.38"/>
	<path clip-path="url(#SVGID_2_)" fill="#1D71B8" d="M25.377,24.624c0,1.194-2.447,2.162-5.465,2.162
		c-3.019,0-5.464-0.968-5.464-2.162c0-1.192,2.446-2.16,5.464-2.16C22.93,22.464,25.377,23.432,25.377,24.624"/>
	<path clip-path="url(#SVGID_2_)" fill="#1D71B8" d="M24.705,21.981c-2.324-1.38-5.864-2.031-9.777,0.147
		c-0.125,0.068,0.332-1.788,0.436-2.545c3.064-2.51,6.355-2.315,9.015-0.2C24.497,20.438,24.827,22.056,24.705,21.981"/>
	<polygon clip-path="url(#SVGID_2_)" fill="#FFFFFF" points="32.021,25.916 31.193,19.896 29.842,20.68 29.422,24.875 	"/>
</g>
</svg>
