<svg width="24" height="24" viewBox="0 0 24 24" xmlns="http://www.w3.org/2000/svg">
    <defs>
        <clipPath id="mbsi708ura">
            <path d="M.296.296a1.007 1.007 0 0 1 1.427 0L6 4.575 10.277.297a1.006 1.006 0 0 1 1.427 0c.394.393.396 1.03 0 1.426L7.425 6l4.277 4.277c.394.394.397 1.03 0 1.427a1.007 1.007 0 0 1-1.426 0L6 7.425l-4.277 4.277a1.006 1.006 0 0 1-1.427 0 1.007 1.007 0 0 1 0-1.426L4.575 6 .297 1.723a1.006 1.006 0 0 1 0-1.427z"/>
        </clipPath>
    </defs>
    <g clip-path="url(#mbsi708ura)" transform="translate(6 6)">
        <path fill="#001D41" d="M0 0h12v12H0V0z"/>
    </g>
</svg>
