<svg width="24" height="24" viewBox="0 0 24 24" xmlns="http://www.w3.org/2000/svg">
    <path d="M13.005 3c.55 0 1.318.323 1.707.712l4.576 4.576c.393.393.712 1.168.712 1.714v8.99C20 20.1 19.105 21 18.006 21H5.994A1.994 1.994 0 0 1 4 19.005V4.995C4 3.893 4.887 3 6 3h7.005zm0 1H6c-.557 0-1 .443-1 .995v14.01c0 .55.445.995.994.995h12.012c.546 0 .994-.45.994-1.009v-8.989c0-.283-.215-.803-.419-1.007L14.005 4.42c-.204-.204-.719-.419-1-.419zM11.5 8c.276 0 .5.216.5.492v6.148l1.746-1.78a.497.497 0 0 1 .7-.006.498.498 0 0 1-.002.702l-2.591 2.591a.5.5 0 0 1-.706 0l-2.59-2.59a.502.502 0 0 1-.004-.704.49.49 0 0 1 .7.007L11 14.64V8.492c0-.272.232-.492.5-.492z" fill="#000" fill-rule="nonzero"/>
</svg>
