<svg width="30" height="30" viewBox="0 0 30 30" xmlns="http://www.w3.org/2000/svg">
    <g fill="none" fill-rule="evenodd">
        <circle fill="#001E42" cx="15" cy="15" r="15"/>
        <path d="M14.415 7h1.17C16.366 7 17 7.746 17 8.667c0 .046-.002.092-.005.138l-.472 6.667c-.06.864-.674 1.528-1.41 1.528h-.226c-.736 0-1.35-.664-1.41-1.528l-.472-6.667c-.065-.917.514-1.723 1.293-1.8.039-.003.078-.005.117-.005zM15 19.098a2 2 0 1 1 0 4 2 2 0 0 1 0-4z" fill="#FFF" fill-rule="nonzero"/>
    </g>
</svg>
