<svg width="24" height="24" viewBox="0 0 24 24" xmlns="http://www.w3.org/2000/svg">
    <path d="M12 3.5c3.221 0 6.06 1.566 8.49 4.158a19.997 19.997 0 0 1 2.636 3.536l.225.4.096.182a.5.5 0 0 1 0 .448l-.096.182-.225.4a19.997 19.997 0 0 1-2.636 3.536C18.06 18.934 15.22 20.5 12 20.5s-6.06-1.566-8.49-4.158a19.997 19.997 0 0 1-2.636-3.536l-.225-.4-.096-.182a.5.5 0 0 1 0-.448l.096-.182.225-.4A19.997 19.997 0 0 1 3.51 7.658C5.94 5.066 8.78 3.5 12 3.5zm0 1c-2.904 0-5.503 1.434-7.76 3.842a19.008 19.008 0 0 0-2.502 3.355L1.566 12l.172.303a19.008 19.008 0 0 0 2.501 3.355C6.498 18.066 9.097 19.5 12 19.5s5.503-1.434 7.76-3.842a19.008 19.008 0 0 0 2.502-3.355l.171-.303-.171-.303a19.008 19.008 0 0 0-2.501-3.355C17.502 5.934 14.903 4.5 12 4.5zm0 4a3.5 3.5 0 1 1 0 7 3.5 3.5 0 0 1 0-7zm0 1a2.5 2.5 0 1 0 0 5 2.5 2.5 0 0 0 0-5z" fill="#001E42" fill-rule="nonzero"/>
</svg>
