<?xml version="1.0" encoding="utf-8"?>
<!-- Generator: Adobe Illustrator 15.1.0, SVG Export Plug-In . SVG Version: 6.00 Build 0)  -->
<!DOCTYPE svg PUBLIC "-//W3C//DTD SVG 1.1//EN" "http://www.w3.org/Graphics/SVG/1.1/DTD/svg11.dtd">
<svg version="1.1" id="Ebene_1" xmlns="http://www.w3.org/2000/svg" xmlns:xlink="http://www.w3.org/1999/xlink" x="0px" y="0px"
	 width="46px" height="46px" viewBox="0 0 46 46" enable-background="new 0 0 46 46" xml:space="preserve">
<g>
	<defs>
		<rect id="SVGID_1_" x="0.5" y="0.5" width="45" height="45"/>
	</defs>
	<clipPath id="SVGID_2_">
		<use xlink:href="#SVGID_1_"  overflow="visible"/>
	</clipPath>
	<path clip-path="url(#SVGID_2_)" fill="#000000" d="M45.146,23.038c0,12.183-9.876,22.059-22.059,22.059S1.029,35.221,1.029,23.038
		S10.905,0.979,23.088,0.979S45.146,10.855,45.146,23.038"/>
	<path clip-path="url(#SVGID_2_)" fill="#FFFFFF" d="M23.088,42.631c-10.803,0-19.592-8.79-19.592-19.593S12.285,3.446,23.088,3.446
		c10.803,0,19.593,8.79,19.593,19.592S33.891,42.631,23.088,42.631 M23.088,4.284c-10.341,0-18.754,8.413-18.754,18.754
		c0,10.342,8.413,18.755,18.754,18.755c10.341,0,18.755-8.413,18.755-18.755C41.843,12.697,33.429,4.284,23.088,4.284"/>
	<path clip-path="url(#SVGID_2_)" fill="none" stroke="#FFFFFF" stroke-width="0.6226" stroke-miterlimit="10" d="M23.088,42.631
		c-10.803,0-19.592-8.79-19.592-19.593S12.285,3.446,23.088,3.446c10.803,0,19.593,8.79,19.593,19.592S33.891,42.631,23.088,42.631z
		 M23.088,4.284c-10.341,0-18.754,8.413-18.754,18.754c0,10.342,8.413,18.755,18.754,18.755c10.341,0,18.755-8.413,18.755-18.755
		C41.843,12.697,33.429,4.284,23.088,4.284z"/>
	<path clip-path="url(#SVGID_2_)" fill="#FFFFFF" d="M30.27,23.428l5.2-3.069l-12.465-8.071L9.651,20.921
		c1.78,0.819,3.854,1.519,5.603,2.502c-0.283,2.093-0.321,3.548-0.334,4.221c-0.104,4.897,6.497,5.017,7.957,5.017
		c1.638,0,8.129-0.782,7.878-4.757C30.709,27.143,30.343,23.884,30.27,23.428"/>
	<path clip-path="url(#SVGID_2_)" fill="#000000" d="M29.049,28.202c0,1.344-2.753,2.432-6.147,2.432
		c-3.396,0-6.148-1.088-6.148-2.432c0-1.342,2.752-2.431,6.148-2.431C26.296,25.771,29.049,26.86,29.049,28.202"/>
	<path clip-path="url(#SVGID_2_)" fill="#000000" d="M28.293,25.229c-2.614-1.553-6.597-2.285-10.999,0.165
		c-0.14,0.077,0.374-2.011,0.49-2.863c3.447-2.824,7.149-2.605,10.143-0.224C28.059,23.493,28.431,25.312,28.293,25.229"/>
	<polygon clip-path="url(#SVGID_2_)" fill="#FFFFFF" points="36.524,29.656 35.592,22.883 34.072,23.765 33.6,28.484 	"/>
</g>
</svg>
