<svg width="24" height="24" viewBox="0 0 24 24" xmlns="http://www.w3.org/2000/svg">
    <defs>
        <clipPath id="250lqk9iqa">
            <path d="M9 0a9 9 0 1 1 0 18A9 9 0 0 1 9 0zm0 1a8 8 0 1 0 0 16A8 8 0 0 0 9 1zm4 12v1H6v-1h7zM8.735 3.813c.203.016.39.047.562.08a.254.254 0 0 1 .234-.176c.118 0 .203.078.228.178l.008.062v.065c.328.112.64.272.92.449a.221.221 0 0 1 .188-.096c.141 0 .235.112.235.24 0 .065-.016.113-.046.145.264.225.484.498.687.788a.266.266 0 0 1 .109-.033c.14 0 .25.112.25.24 0 .096-.047.177-.125.21.156.289.281.61.375.946l.02-.011.043-.005c.14 0 .234.113.234.24 0 .13-.079.226-.172.242.062.336.109.674.14 1.027.141 0 .25.112.25.242 0 .145-.109.24-.234.256 0 .337-.016.707-.047 1.06.125.015.22.127.22.255 0 .111-.08.21-.193.236l-.074.007-.097.54H13v1H6v-1h.352c.166-.526.506-.929.89-1.317l.397-.389c.26-.253.52-.516.746-.817l.162-.233h-.906c-.409.15-1.007 1.027-1.085 1.612l-.009.121h-1.14l.015-.48-.375.319-1-1.188-.024-.037A.172.172 0 0 1 4 8.516l.002-.03.014-.049 1.578-2.2.281-.866.422-.16.438-.627-.156-1.093c.422-.16.828-.016 1.03.193l.005-.214-.005-.199-.015-.261c.75-.08 1.014.338 1.14.803z"/>
        </clipPath>
    </defs>
    <g clip-path="url(#250lqk9iqa)" transform="translate(3 3)">
        <path fill="#001D41" d="M0 0h18v18H0V0z"/>
    </g>
</svg>
