<?xml version="1.0" encoding="UTF-8"?><svg version="1.1" width="24px" height="24px" viewBox="0 0 24.0 24.0" xmlns="http://www.w3.org/2000/svg" xmlns:xlink="http://www.w3.org/1999/xlink"><defs><clipPath id="i0"><path d="M10,0 C15.523,0 20,4.477 20,10 C20,15.523 15.523,20 10,20 C4.477,20 0,15.523 0,10 C0,4.477 4.477,0 10,0 Z M14.292,15 L5.959,15 L5.959,16.25 L14.292,16.25 L14.292,15 Z M8.36094678,3.10494238 L8.209,3.115 L8.21334568,3.16780658 C8.22233333,3.2855679 8.241,3.58077778 8.227,3.853 C8,3.624 7.543,3.468 7.068,3.641 L7.243,4.837 L6.75,5.522 L6.244,5.756 L5.96,6.647 L4.184,9.052 C4.174,9.077 4.167,9.104 4.167,9.139 C4.167,9.192 4.219,9.262 4.219,9.262 L5.345,10.56 L5.766,10.211 L5.749,10.737 L6.956,10.73 C7.078,7.753 9.027,8.097 9.027,8.097 C9.07,10.267 6.686,10.802 6.698,12.44 L5.958,12.44 L5.958,13.333 L14.292,13.333 L14.292,12.44 L13.554,12.44 L13.637,12.042 C13.689,11.779 13.735,11.522 13.782,11.265 L13.8,11.265 L13.876,11.256 C13.996,11.224 14.082,11.118 14.082,11 C14.082,10.86 13.976,10.737 13.835,10.721 C13.87,10.334 13.888,9.929 13.888,9.561 C14.028,9.543 14.152,9.439 14.152,9.281 C14.152,9.139 14.028,9.016 13.87,9.016 C13.835,8.63 13.782,8.26 13.712,7.892 C13.817,7.875 13.906,7.769 13.906,7.628 C13.906,7.489 13.8,7.365 13.642,7.365 C13.624,7.365 13.589,7.365 13.572,7.383 C13.466,7.015 13.325,6.664 13.149,6.347 C13.238,6.312 13.29,6.223 13.29,6.118 C13.29,5.978 13.167,5.855 13.009,5.855 C12.974,5.855 12.922,5.873 12.886,5.891 C12.658,5.575 12.411,5.276 12.113,5.03 C12.148,4.994 12.165,4.942 12.165,4.872 C12.165,4.731 12.06,4.609 11.901,4.609 C11.814,4.609 11.743,4.644 11.69,4.714 C11.374,4.52 11.024,4.345 10.654,4.222 L10.654,4.152 L10.642,4.071 C10.61,3.967 10.516,3.889 10.389,3.889 C10.266,3.889 10.161,3.976 10.126,4.081 C9.933,4.046 9.722,4.012 9.493,3.994 C9.359875,3.5168125 9.08964062,3.08532812 8.36094678,3.10494238 Z"></path></clipPath></defs><g transform="translate(2.0 2.0)"><g clip-path="url(#i0)"><polygon points="0,0 20,0 20,20 0,20 0,0" stroke="none" fill="#FFFFFF"></polygon></g></g></svg>