<svg width="20" height="20" viewBox="0 0 20 20" xmlns="http://www.w3.org/2000/svg">
    <defs>
        <filter id="ft1xc5tfua">
            <feColorMatrix in="SourceGraphic" values="0 0 0 0 1.000000 0 0 0 0 1.000000 0 0 0 0 1.000000 0 0 0 1.000000 0"/>
        </filter>
    </defs>
    <g filter="url(#ft1xc5tfua)" fill="none" fill-rule="evenodd">
        <path d="M10 0c5.523 0 10 4.477 10 10s-4.477 10-10 10S0 15.523 0 10 4.477 0 10 0zM5.959 16.25h8.333V15H5.959v1.25zM8.395 3.104l-.186.011s.036.388.018.738c-.227-.229-.684-.385-1.159-.212l.175 1.196-.493.685-.506.234-.284.891-1.776 2.405a.224.224 0 0 0-.017.087c0 .053.052.123.052.123l1.126 1.298.421-.349-.017.526 1.207-.007c.122-2.977 2.071-2.633 2.071-2.633.043 2.17-2.341 2.705-2.329 4.343h-.74v.893h8.334v-.893h-.738l.083-.398c.052-.263.098-.52.145-.777h.018l.076-.009a.272.272 0 0 0 .206-.256.282.282 0 0 0-.247-.279c.035-.387.053-.792.053-1.16.14-.018.264-.122.264-.28 0-.142-.124-.265-.282-.265a11.561 11.561 0 0 0-.158-1.124c.105-.017.194-.123.194-.264a.26.26 0 0 0-.264-.263c-.018 0-.053 0-.07.018a4.979 4.979 0 0 0-.423-1.036c.089-.035.141-.124.141-.229 0-.14-.123-.263-.281-.263a.325.325 0 0 0-.123.036 4.533 4.533 0 0 0-.773-.861c.035-.036.052-.088.052-.158a.258.258 0 0 0-.264-.263.253.253 0 0 0-.211.105 5.038 5.038 0 0 0-1.036-.492v-.07l-.012-.081a.257.257 0 0 0-.253-.182.284.284 0 0 0-.263.192 6.253 6.253 0 0 0-.633-.087c-.142-.509-.44-.966-1.284-.879l.186-.011z" fill="#000"/>
    </g>
</svg>
