<?xml version="1.0" encoding="UTF-8"?><svg version="1.1" width="24px" height="24px" viewBox="0 0 24.0 24.0" xmlns="http://www.w3.org/2000/svg" xmlns:xlink="http://www.w3.org/1999/xlink"><defs><clipPath id="i0"><path d="M13.5,0 C13.7761424,-5.07265313e-17 14,0.223857625 14,0.5 C14,0.776142375 13.7761424,1 13.5,1 L0.5,1 C0.223857625,1 3.38176876e-17,0.776142375 0,0.5 C-3.38176876e-17,0.223857625 0.223857625,5.07265313e-17 0.5,0 L13.5,0 Z"></path></clipPath></defs><g transform="translate(5.0 7.0)"><g clip-path="url(#i0)"><polygon points="0,0 14,0 14,1 0,1 0,0" stroke="none" fill="#0055D8"></polygon></g></g><g transform="translate(5.0 11.0)"><g clip-path="url(#i0)"><polygon points="0,0 14,0 14,1 0,1 0,0" stroke="none" fill="#0055D8"></polygon></g></g><g transform="translate(5.0 15.0)"><g clip-path="url(#i0)"><polygon points="0,0 14,0 14,1 0,1 0,0" stroke="none" fill="#0055D8"></polygon></g></g></svg>