<svg width="24" height="24" viewBox="0 0 24 24" xmlns="http://www.w3.org/2000/svg">
    <defs>
        <filter id="gor0p9ppga">
            <feColorMatrix in="SourceGraphic" values="0 0 0 0 0.000000 0 0 0 0 0.334646 0 0 0 0 0.850000 0 0 0 1.000000 0"/>
        </filter>
    </defs>
    <g transform="translate(-12 -12)" filter="url(#gor0p9ppga)" fill="none" fill-rule="evenodd">
        <path d="M12 12h24v24H12z"/>
        <path d="M21 25.75c-2.34 0-7 1.17-7 3.5V31h14v-1.75c0-2.33-4.66-3.5-7-3.5zM16.34 29c.84-.58 2.87-1.25 4.66-1.25s3.82.67 4.66 1.25h-9.32zM21 24c1.93 0 3.5-1.57 3.5-3.5S22.93 17 21 17s-3.5 1.57-3.5 3.5S19.07 24 21 24zm0-5c.83 0 1.5.67 1.5 1.5S21.83 22 21 22s-1.5-.67-1.5-1.5.67-1.5 1.5-1.5zm7.04 6.81c1.16.84 1.96 1.96 1.96 3.44V31h4v-1.75c0-2.02-3.5-3.17-5.96-3.44zM27 24c1.93 0 3.5-1.57 3.5-3.5S28.93 17 27 17c-.54 0-1.04.13-1.5.35.63.89 1 1.98 1 3.15s-.37 2.26-1 3.15c.46.22.96.35 1.5.35z" fill="#000" fill-rule="nonzero"/>
    </g>
</svg>
