<?xml version="1.0" encoding="UTF-8"?><svg version="1.1" width="24px" height="24px" viewBox="0 0 24.0 24.0" xmlns="http://www.w3.org/2000/svg" xmlns:xlink="http://www.w3.org/1999/xlink"><defs><clipPath id="i0"><path d="M7,-1.77635684e-15 C10.8659932,-1.77635684e-15 14,3.13400675 14,7 C14,8.67171941 13.4139907,10.206569 12.4361874,11.4103335 L15.4804498,14.4545959 C15.7633006,14.7374466 15.7703548,15.2037913 15.487073,15.487073 C15.212076,15.76207 14.7415355,15.7673895 14.4545959,15.4804498 L11.4103335,12.4361874 C10.206569,13.4139907 8.67171941,14 7,14 C3.13400675,14 0,10.8659932 0,7 C0,3.13400675 3.13400675,-1.77635684e-15 7,-1.77635684e-15 Z M7,1 C3.6862915,1 1,3.6862915 1,7 C1,10.3137085 3.6862915,13 7,13 C10.3137085,13 13,10.3137085 13,7 C13,3.6862915 10.3137085,1 7,1 Z"></path></clipPath></defs><g transform="translate(4.0000000000003055 3.9999999999999973)"><g clip-path="url(#i0)"><polygon points="0,-1.77635684e-15 15.6960921,-1.77635684e-15 15.6960921,15.6944879 0,15.6944879 0,-1.77635684e-15" stroke="none" fill="#0055D8"></polygon></g></g></svg>