<svg width="180" height="30" viewBox="0 0 180 30" xmlns="http://www.w3.org/2000/svg">
    <g fill-rule="nonzero" fill="none">
        <path d="M36.784 23.343c-1.562 0-2.794-.367-3.985-.9-.247-1.071-.328-2.505-.41-3.987l.944-.164c.533 2.013 1.274 3.986 3.742 3.986 1.723 0 2.75-1.071 2.75-2.671 0-4.234-7.025-3.288-7.025-8.178 0-2.215 1.808-4.23 5.013-4.23 1.067 0 2.22.288 3.368.698.081.862.166 1.849.205 3.575l-.863.039c-.41-1.437-1.068-3.202-3.164-3.202-1.56 0-2.341 1.065-2.341 2.34 0 3.902 7.15 3.08 7.15 8.177 0 2.425-2.177 4.517-5.384 4.517m11.712-.16c3.08-.37 5.546-2.714 5.546-6.164 0-2.136-1.439-4.354-3.985-4.354-.289 0-.576.039-.866.203l-2.216 1.15v-1.56c-1.194.41-2.342.78-3.575 1.028v.698c1.397.125 1.438.164 1.438 1.602v10.97c0 1.397-.123 1.52-1.603 1.686v.78h5.793v-.78c-1.888-.167-2.053-.289-2.053-1.687v-3.863c.329.125.863.249 1.521.292m-1.521-8.22c.532-.328 1.395-.78 2.053-.78 1.56 0 2.795 1.15 2.795 3.738 0 3.08-1.562 3.986-2.753 3.986-.905 0-1.643-.371-2.095-.862v-6.081zm14.871.245c-.245-.326-.57-.407-.984-.407-.534 0-1.191.617-1.644 1.89v3.818c0 1.399.166 1.52 1.931 1.645v.821h-5.587v-.82c1.396-.126 1.56-.247 1.56-1.646v-4.644c0-1.394-.122-1.394-1.396-1.639v-.698c1.232-.248 2.423-.495 3.493-.905v2.465h.04c.739-1.358 1.766-2.423 2.715-2.423.819 0 1.393.616 1.393 1.272 0 .945-.986 1.765-1.521 1.27m2.591 7.768v-.82c1.394-.126 1.599-.247 1.599-1.727v-4.437c0-1.603-.119-1.603-1.477-1.765v-.698c1.272-.248 2.547-.537 3.575-.905v7.805c0 1.48.12 1.602 1.56 1.726v.821h-5.257zm2.547-12.531a1.382 1.382 0 0 1-1.397-1.394c0-.822.614-1.44 1.397-1.44.82 0 1.437.618 1.437 1.44 0 .778-.617 1.394-1.437 1.394m10.433 12.531v-.82c1.153-.126 1.317-.247 1.317-1.564v-4.026c0-1.477-.657-2.381-1.888-2.381-.782 0-1.687.574-2.302 1.15v5.257c0 1.317.119 1.439 1.271 1.563v.821h-5.012v-.82c1.395-.126 1.603-.247 1.603-1.564v-4.726c0-1.394-.08-1.477-1.315-1.639v-.698c1.234-.248 2.382-.495 3.453-.905v1.642c.534-.452 2.094-1.601 3.285-1.601 1.848 0 3 1.272 3 3.164v4.763c0 1.317.206 1.438 1.436 1.563v.82h-4.848v.001zm12.82-.821h-2.464c-.984 0-1.354-.453-1.354-.826 0-.367.41-.942.901-1.105.286 0 .618.04.743.04 2.052 0 4.313-1.354 4.313-3.864 0-.698-.248-1.6-.579-2.053l1.193.125c.371-.206.825-.906.986-1.274l-.161-.246c-.989.123-2.057.246-3.125.284a5.113 5.113 0 0 0-2.383-.572c-1.97 0-4.355 1.436-4.355 4.11 0 1.478 1.026 2.792 2.138 3.163-.373.45-1.235 1.192-2.18 1.6-.08 1.316 1.152 2.015 1.849 2.263-1.93 1.477-2.385 2.176-2.385 3.077 0 1.398 1.48 3.123 4.275 3.123 3.203 0 5.958-2.22 5.958-4.847 0-2.3-1.93-2.998-3.37-2.998m-2.135-8.506c1.274 0 2.054 1.316 2.054 2.917 0 1.89-.866 2.671-1.767 2.671-1.235 0-2.135-1.232-2.135-2.958 0-1.727.984-2.63 1.848-2.63m.534 15.075c-1.847 0-3.081-1.062-3.081-2.462 0-.985.781-2.3 2.547-2.3 1.274 0 2.054.04 2.629.248.616.245 1.108.943 1.108 1.805 0 1.354-1.149 2.709-3.203 2.709m11.461-7.27c-1.601 0-3.201-1.149-3.285-3.86 2.587-.082 5.424-.288 5.795-.33.45-.084.57-.327.57-.945 0-1.931-1.6-3.655-3.614-3.655-2.42 0-4.85 2.505-4.85 5.707 0 2.631 1.686 4.851 4.603 4.851.743 0 2.344-.41 3.696-2.093l-.531-.742c-.82.82-1.479 1.066-2.384 1.066m-.985-7.762c1.109 0 1.89 1.066 1.89 2.175 0 .413-.082.538-.533.538l-3.533.08c.244-1.766 1.233-2.793 2.176-2.793m11.833 1.518a1.405 1.405 0 0 0-.987-.407c-.534 0-1.229.617-1.683 1.89v3.818c0 1.399.164 1.52 1.931 1.645v.821h-5.63v-.82c1.439-.126 1.563-.247 1.563-1.646v-4.644c0-1.394-.08-1.394-1.397-1.639v-.698c1.317-.248 2.464-.495 3.534-.905v2.465h.04c.698-1.358 1.726-2.423 2.71-2.423.782 0 1.396.616 1.396 1.272 0 .945-1.023 1.765-1.477 1.27M4.28 23.036v-1.193h1.644c.286-3.861 3.985-5.298 6.039-8.421H9.579c-1.15.411-2.875 2.96-2.875 4.437h-3l.04-1.232-.985.818-2.63-3.038s-.123-.163-.123-.287c0-.125.04-.204.04-.204l4.151-5.629.739-2.219 1.108-.41 1.152-1.605-.41-2.796c1.11-.406 2.179-.04 2.71.494.021-.575.007-1.151-.041-1.725 1.972-.203 2.668.865 3 2.056.535.042 1.028.12 1.48.205a.667.667 0 0 1 .616-.451c.37 0 .619.288.619.615v.165c.863.288 1.682.698 2.421 1.15a.586.586 0 0 1 .492-.245c.372 0 .619.287.619.615 0 .165-.04.288-.122.37.696.575 1.272 1.275 1.806 2.015a.725.725 0 0 1 .287-.084c.37 0 .656.287.656.616 0 .245-.121.453-.328.535.41.74.74 1.564.987 2.423.042-.041.123-.041.165-.041.368 0 .616.288.616.616 0 .33-.206.577-.453.618.166.87.29 1.747.369 2.63.37 0 .658.286.658.617 0 .37-.288.613-.617.656 0 .861-.042 1.808-.123 2.713a.66.66 0 0 1 .576.653c0 .332-.286.621-.659.621h-.041c-.164.901-.328 1.806-.534 2.75h1.725v1.192H4.28zm8.422-19.68c.04.41.04.74.04 1.067 0 .493-.04.905-.04.905l-1.192-.204c.043-.413.125-3.207-.862-3.823 0 0 0 1.479-.33 2.956L9.21 4.053c0-1.028-.452-1.438-1.067-1.724L8.43 4.34l-.7 1.026.331.946-2.179.739-.616 1.768-3.822 5.258 1.44 1.725 1.602-1.353.37.245v2.013h.864c.367-1.438 1.56-3.123 2.669-3.944l-.618-.74.903-.777.864 1.067s3.084 0 3.084-.041c.45-.989.737-2.179.737-3.575h1.191c0 4.685-2.34 6.53-5.259 9.409-1.07 1.065-2.013 2.216-2.137 3.777h13.56c2.383-9.82-.408-17.627-8.012-18.528M3.254 14.57l-.865-.327c.287-.41.453-.986.453-1.478l.738.039c.042.533-.04 1.355-.326 1.766m3.201-5.34-.123-1.52 1.93-.206.044.742-1.85.984z" fill="#002D59"/>
        <path fill="#EF7B10" d="M4.288 26.692H23.64v2.383H4.29z"/>
        <path d="M130.007 16.306c-.129-2.199-.303-4.897-.303-6.509h-.046a143.48 143.48 0 0 1-1.978 5.486l-3.092 7.966h-.719l-2.895-7.792c-.828-2.285-1.458-4.048-1.893-5.66h-.044c-.062 2.237-.171 4.472-.326 6.705l-.459 6.747h-1.021l1.064-14.67h1.199l3.157 8.467c.695 1.85 1.196 3.33 1.61 4.745h.065c.37-1.35.892-2.765 1.632-4.745l3.288-8.467h1.24l.98 14.67h-1.025l-.434-6.943zm4.337 1.61c0 3.33 1.828 4.659 3.986 4.659 1.52 0 2.306-.305 2.894-.588l.261.805c-.392.219-1.458.675-3.287.675-3.004 0-4.875-2.176-4.875-5.245 0-3.483 2.003-5.66 4.7-5.66 3.417 0 4.07 3.221 4.07 4.724 0 .283 0 .435-.043.631h-7.706zm6.66-.827c.022-1.458-.587-3.657-3.11-3.657-2.308 0-3.289 2.047-3.484 3.657h6.594zm11.54-9.316v13.06c0 .762.022 1.676.086 2.416h-.934l-.087-1.981h-.046c-.543 1.153-1.783 2.22-3.72 2.22-2.591 0-4.506-2.154-4.506-5.267-.021-3.482 2.133-5.66 4.7-5.66 1.808 0 2.962.936 3.418 1.85h.044V7.774h1.044zm-1.044 9.164c0-.283-.023-.653-.11-.958a3.345 3.345 0 0 0-3.285-2.547c-2.287 0-3.723 1.982-3.723 4.68 0 2.35 1.176 4.506 3.655 4.506 1.503 0 2.916-1.001 3.352-2.722.087-.261.11-.543.11-.871v-2.088zm4.486-6.226c-.48 0-.806-.413-.806-.892 0-.48.371-.914.85-.914.478 0 .826.413.826.914 0 .479-.326.892-.849.892h-.021zm-.48 12.538V12.8h1.047v10.448h-1.047zm2.592-.63 5.638-7.423c.392-.506.79-1.007 1.196-1.502v-.044h-6.376v-.849h7.64l-.022.696-5.637 7.422c-.37.48-.718.96-1.11 1.437v.043h6.792v.849h-8.12v-.63h-.001zm10.124-11.908c-.479 0-.805-.413-.805-.892 0-.48.37-.914.848-.914.479 0 .829.413.829.914 0 .479-.326.892-.85.892h-.022zm-.479 12.538V12.8h1.046v10.448h-1.046zm4.007-7.945c0-.958-.022-1.676-.087-2.503h.98l.064 1.871h.042c.568-1.174 1.896-2.111 3.594-2.111 1 0 3.657.5 3.657 4.42v6.268h-1.045v-6.181c0-1.916-.741-3.636-2.894-3.636-1.46 0-2.72 1.045-3.137 2.417-.08.298-.124.605-.13.913v6.487h-1.043v-7.945z" fill="#002D59"/>
    </g>
</svg>
