<svg width="24" height="24" viewBox="0 0 24 24" xmlns="http://www.w3.org/2000/svg">
    <defs>
        <filter id="qjhjswlf4a">
            <feColorMatrix in="SourceGraphic" values="0 0 0 0 0.000000 0 0 0 0 0.334646 0 0 0 0 0.850000 0 0 0 1.000000 0"/>
        </filter>
    </defs>
    <g transform="translate(-10 -12)" filter="url(#qjhjswlf4a)" fill="none" fill-rule="evenodd">
        <path d="M10 12h24v24H10z"/>
        <path d="M24 14c-5.52 0-10 4.48-10 10s4.48 10 10 10 10-4.48 10-10-4.48-10-10-10zm7.46 7.12-2.78 1.15a4.982 4.982 0 0 0-2.95-2.94l1.15-2.78c2.1.8 3.77 2.47 4.58 4.57zM24 27c-1.66 0-3-1.34-3-3s1.34-3 3-3 3 1.34 3 3-1.34 3-3 3zm-2.87-10.46 1.17 2.78a5 5 0 0 0-2.98 2.97l-2.78-1.16a7.984 7.984 0 0 1 4.59-4.59zm-4.59 10.33 2.78-1.15a4.968 4.968 0 0 0 2.97 2.96l-1.17 2.78a7.996 7.996 0 0 1-4.58-4.59zm10.34 4.59-1.15-2.78a4.978 4.978 0 0 0 2.95-2.97l2.78 1.17a8.007 8.007 0 0 1-4.58 4.58z" fill="#000" fill-rule="nonzero"/>
    </g>
</svg>
