<svg width="24" height="24" viewBox="0 0 24 24" xmlns="http://www.w3.org/2000/svg">
    <path d="M21 14.5a.5.5 0 0 1 .5.5v4a2.5 2.5 0 0 1-2.5 2.5H5A2.5 2.5 0 0 1 2.5 19v-4a.5.5 0 1 1 1 0v4A1.5 1.5 0 0 0 5 20.5h14a1.5 1.5 0 0 0 1.5-1.5v-4a.5.5 0 0 1 .5-.5zM11.926 2.505l.032-.003.054-.002c.02 0 .041.002.062.005L12 2.5l.053.003.075.014.063.02.076.04.055.04 5.032 5.03a.5.5 0 0 1-.708.707L12.5 4.207V15a.5.5 0 1 1-1 0V4.207L7.354 8.354a.5.5 0 0 1-.638.057l-.07-.057a.5.5 0 0 1 0-.708l5-5 .042-.037.062-.042.06-.03.062-.02.054-.012z" fill="#FFF" fill-rule="nonzero"/>
</svg>
