<?xml version="1.0" encoding="UTF-8"?>
<svg width="24px" height="24px" viewBox="0 0 24 24" version="1.1" xmlns="http://www.w3.org/2000/svg" xmlns:xlink="http://www.w3.org/1999/xlink">
    <title>Icons / Outline / Dark-Blue / User</title>
    <g id="Icons-/-Outline-/-Dark-Blue-/-User" stroke="none" stroke-width="1" fill="none" fill-rule="evenodd">
        <path d="M15.5,15 C17.9852814,15 20,17.0147186 20,19.5 L20,21.5 C20,21.7761424 19.7761424,22 19.5,22 C19.2238576,22 19,21.7761424 19,21.5 L19,19.5 C19,17.5670034 17.4329966,16 15.5,16 L8.5,16 C6.56700338,16 5,17.5670034 5,19.5 L5,21.5 C5,21.7761424 4.77614237,22 4.5,22 C4.22385763,22 4,21.7761424 4,21.5 L4,19.5 C4,17.0147186 6.01471863,15 8.5,15 L15.5,15 Z M12,3 C9.51471863,3 7.5,5.01471863 7.5,7.5 C7.5,9.98528137 9.51471863,12 12,12 C14.4852814,12 16.5,9.98528137 16.5,7.5 C16.5,5.01471863 14.4852814,3 12,3 Z M12,4 C13.9329966,4 15.5,5.56700338 15.5,7.5 C15.5,9.43299662 13.9329966,11 12,11 C10.0670034,11 8.5,9.43299662 8.5,7.5 C8.5,5.56700338 10.0670034,4 12,4 Z" id="Shape" fill="#001E42" fill-rule="nonzero"></path>
    </g>
</svg>