<?xml version="1.0" encoding="UTF-8"?>
<svg width="24px" height="24px" viewBox="0 0 24 24" version="1.1" xmlns="http://www.w3.org/2000/svg" xmlns:xlink="http://www.w3.org/1999/xlink">
    <title>Icons / Outline / Dark-Blue / Users</title>
    <g id="Icons-/-Outline-/-Dark-Blue-/-Users" stroke="none" stroke-width="1" fill="none" fill-rule="evenodd">
        <path d="M13,14.5 C15.4852814,14.5 17.5,16.5147186 17.5,19 L17.5,21 C17.5,21.2761424 17.2761424,21.5 17,21.5 C16.7238576,21.5 16.5,21.2761424 16.5,21 L16.5,19 C16.5,17.0670034 14.9329966,15.5 13,15.5 L5,15.5 C3.06700338,15.5 1.5,17.0670034 1.5,19 L1.5,21 C1.5,21.2761424 1.27614237,21.5 1,21.5 C0.723857625,21.5 0.5,21.2761424 0.5,21 L0.5,19 C0.5,16.5147186 2.51471863,14.5 5,14.5 L13,14.5 Z M9,2.5 C6.51471863,2.5 4.5,4.51471863 4.5,7 C4.5,9.48528137 6.51471863,11.5 9,11.5 C11.4852814,11.5 13.5,9.48528137 13.5,7 C13.5,4.51471863 11.4852814,2.5 9,2.5 Z M9,3.5 C10.9329966,3.5 12.5,5.06700338 12.5,7 C12.5,8.93299662 10.9329966,10.5 9,10.5 C7.06700338,10.5 5.5,8.93299662 5.5,7 C5.5,5.06700338 7.06700338,3.5 9,3.5 Z M20.0359642,14.631208 L20.1249999,14.645877 C22.1106235,15.1585623 23.4984702,16.9488845 23.5,19 L23.5,21 C23.5,21.2761424 23.2761424,21.5 23,21.5 C22.7238576,21.5 22.5,21.2761424 22.5,21 L22.5000001,19.000373 C22.4988104,17.405351 21.4193741,16.0128781 19.8750001,15.614123 C19.6076264,15.5450874 19.4468415,15.2723739 19.515877,15.0050001 C19.5772419,14.7673346 19.7995377,14.6138874 20.0359642,14.631208 Z M16.1240196,2.645625 C18.1151738,3.15544101 19.5078433,4.94961504 19.5078433,7.005 C19.5078433,9.06038496 18.1151738,10.854559 16.1240196,11.364375 C15.8565067,11.4328691 15.5841191,11.2715325 15.515625,11.0040196 C15.4471309,10.7365067 15.6084675,10.4641191 15.8759804,10.395625 C17.4246559,9.99910144 18.5078433,8.60363275 18.5078433,7.005 C18.5078433,5.40636725 17.4246559,4.01089856 15.8759804,3.614375 C15.6084675,3.54588087 15.4471309,3.27349333 15.515625,3.00598041 C15.5765087,2.76819114 15.7984933,2.61429427 16.0349545,2.63113625 L16.1240196,2.645625 Z" id="Combined-Shape" fill="#001E42" fill-rule="nonzero"></path>
    </g>
</svg>