<svg width="294" height="60" viewBox="0 0 294 60" xmlns="http://www.w3.org/2000/svg">
    <g fill="#FFF" fill-rule="nonzero">
        <path d="M1.671 59.555H6.61v-9.592l2.428-2.914 7.73 12.506h5.828l-9.996-15.662 9.389-11.616h-6.152L8.713 41.87c-.647.93-1.335 1.902-1.983 2.954H6.61V32.277H1.67v27.278zM30.562 59.555v-19.71h-5.019v19.71h5.019zm-2.51-27.925c-1.659 0-2.792 1.174-2.792 2.712 0 1.497 1.093 2.67 2.752 2.67 1.74 0 2.833-1.173 2.833-2.67-.04-1.538-1.093-2.712-2.792-2.712zM36.222 59.555h5.018V47.98c0-.566.04-1.173.203-1.619.526-1.497 1.902-2.914 3.885-2.914 2.711 0 3.764 2.145 3.764 4.978v11.13h4.978V47.859c0-6.233-3.562-8.459-7.002-8.459-3.278 0-5.423 1.862-6.273 3.4h-.121l-.243-2.954h-4.37c.12 1.7.161 3.601.161 5.868v13.84zM72.883 30.82v11.17h-.081c-.89-1.456-2.833-2.59-5.545-2.59-4.735 0-8.863 3.926-8.822 10.523 0 6.07 3.723 10.077 8.418 10.077 2.873 0 5.26-1.376 6.434-3.561h.081l.203 3.116h4.452c-.081-1.336-.162-3.521-.162-5.545V30.82h-4.978zm0 20.195c0 .527-.04 1.012-.162 1.457-.486 2.145-2.267 3.521-4.29 3.521-3.157 0-4.938-2.63-4.938-6.232 0-3.683 1.781-6.516 4.978-6.516 2.267 0 3.845 1.578 4.29 3.521.081.405.122.89.122 1.295v2.954zM100.235 51.096c.081-.445.162-1.173.162-2.104 0-4.33-2.104-9.592-8.499-9.592-6.313 0-9.632 5.14-9.632 10.604 0 6.03 3.764 9.956 10.158 9.956 2.833 0 5.18-.527 6.88-1.215l-.728-3.44c-1.498.567-3.157.89-5.464.89-3.156 0-5.949-1.537-6.07-5.099h13.193zm-13.193-3.48c.202-2.024 1.497-4.816 4.573-4.816 3.319 0 4.128 2.995 4.087 4.816h-8.66zM104.722 59.555h4.978V49.356c0-.566.08-1.093.161-1.538.446-2.226 2.064-3.763 4.452-3.763.607 0 1.053.08 1.457.161v-4.694a5.23 5.23 0 0 0-1.173-.122c-2.105 0-4.412 1.417-5.383 4.21h-.162l-.162-3.764h-4.33c.121 1.78.162 3.682.162 6.353v13.356zM119.447 59.555h5.019V47.778c0-.567.04-1.093.202-1.498.526-1.497 1.902-2.792 3.845-2.792 2.752 0 3.804 2.145 3.804 5.018v11.049h4.978V47.94c0-6.314-3.521-8.54-6.88-8.54-1.255 0-2.428.324-3.4.89a6.68 6.68 0 0 0-2.468 2.267h-.081V30.821h-5.019v28.734zM159.629 51.096c.081-.445.162-1.173.162-2.104 0-4.33-2.105-9.592-8.499-9.592-6.313 0-9.632 5.14-9.632 10.604 0 6.03 3.764 9.956 10.158 9.956 2.833 0 5.18-.527 6.88-1.215l-.728-3.44c-1.498.567-3.157.89-5.464.89-3.157 0-5.95-1.537-6.07-5.099h13.193zm-13.193-3.48c.202-2.024 1.497-4.816 4.573-4.816 3.318 0 4.128 2.995 4.087 4.816h-8.66zM169.134 59.555v-19.71h-5.019v19.71h5.019zm-2.51-27.925c-1.659 0-2.792 1.174-2.792 2.712 0 1.497 1.093 2.67 2.752 2.67 1.74 0 2.833-1.173 2.833-2.67-.04-1.538-1.093-2.712-2.792-2.712zM174.794 59.555h5.018V30.82h-5.018zM190.49 30.82h-4.977v28.735h4.978v-6.718l1.7-1.983 5.666 8.7h6.11L195.632 47.9l7.284-8.053h-5.99l-4.775 6.353a32.93 32.93 0 0 0-1.578 2.307h-.081V30.821zM224.076 39.846h-4.978v11.898c0 .567-.121 1.093-.283 1.538-.526 1.254-1.821 2.67-3.805 2.67-2.63 0-3.682-2.104-3.682-5.382V39.846h-4.978V51.42c0 6.435 3.278 8.58 6.88 8.58 3.52 0 5.463-2.024 6.313-3.44h.081l.243 2.995h4.37a114.51 114.51 0 0 1-.161-5.909v-13.8zM229.776 59.555h5.019V47.98c0-.566.04-1.173.202-1.619.526-1.497 1.902-2.914 3.885-2.914 2.712 0 3.764 2.145 3.764 4.978v11.13h4.978V47.859c0-6.233-3.561-8.459-7.001-8.459-3.278 0-5.423 1.862-6.273 3.4h-.122l-.243-2.954h-4.37c.121 1.7.161 3.601.161 5.868v13.84zM266.437 30.82v11.17h-.08c-.891-1.456-2.834-2.59-5.545-2.59-4.735 0-8.863 3.926-8.823 10.523 0 6.07 3.724 10.077 8.418 10.077 2.874 0 5.261-1.376 6.435-3.561h.08l.203 3.116h4.452c-.08-1.336-.162-3.521-.162-5.545V30.82h-4.978zm0 20.195c0 .527-.04 1.012-.162 1.457-.485 2.145-2.266 3.521-4.29 3.521-3.156 0-4.937-2.63-4.937-6.232 0-3.683 1.78-6.516 4.978-6.516 2.266 0 3.845 1.578 4.29 3.521.08.405.121.89.121 1.295v2.954zM293.79 51.096c.08-.445.162-1.173.162-2.104 0-4.33-2.105-9.592-8.5-9.592-6.313 0-9.631 5.14-9.631 10.604 0 6.03 3.763 9.956 10.158 9.956 2.833 0 5.18-.527 6.88-1.215l-.729-3.44c-1.497.567-3.156.89-5.463.89-3.157 0-5.95-1.537-6.07-5.099h13.193zm-13.194-3.48c.203-2.024 1.498-4.816 4.573-4.816 3.32 0 4.128 2.995 4.088 4.816h-8.66z"/>
        <g>
            <path d="M13.333 16.049h2.671l-.868-15.003h-3.561l-2.07 6.01a73.234 73.234 0 0 0-1.492 5.23h-.067a75.721 75.721 0 0 0-1.38-5.208L4.608 1.046H1.002L0 16.05h2.56l.334-6.032c.111-2.048.2-4.43.267-6.389h.044c.4 1.87.935 3.918 1.514 5.832l2.003 6.41h2.115l2.181-6.499a80.183 80.183 0 0 0 1.78-5.743h.068c-.023 2.026.089 4.363.178 6.3l.29 6.12zM23.88 4.964c-3.271 0-5.609 2.181-5.609 5.743 0 3.472 2.36 5.587 5.432 5.587 2.76 0 5.564-1.781 5.564-5.766 0-3.294-2.159-5.564-5.386-5.564zm-.066 2.003c1.87 0 2.626 1.937 2.626 3.628 0 2.182-1.09 3.718-2.648 3.718-1.67 0-2.694-1.58-2.694-3.673 0-1.803.78-3.673 2.716-3.673zM31.69 16.049h2.76V9.683c0-.312.023-.646.112-.89.29-.824 1.046-1.603 2.137-1.603 1.491 0 2.07 1.18 2.07 2.737v6.122h2.738V9.616c0-3.428-1.96-4.652-3.851-4.652-1.803 0-2.983 1.024-3.45 1.87h-.067l-.134-1.625h-2.404c.067.934.09 1.98.09 3.227v7.613zM53.167 16.049c-.111-.668-.156-1.625-.156-2.605V9.527c0-2.36-1.001-4.563-4.474-4.563-1.714 0-3.116.467-3.917.957l.534 1.78c.734-.467 1.847-.8 2.916-.8 1.914 0 2.203 1.179 2.203 1.891v.178c-4.006-.022-6.432 1.358-6.432 4.096 0 1.647 1.224 3.228 3.405 3.228 1.403 0 2.538-.601 3.205-1.447h.067l.178 1.202h2.471zm-2.827-3.807c0 .178-.022.401-.089.601-.245.78-1.046 1.492-2.137 1.492-.868 0-1.558-.49-1.558-1.558 0-1.648 1.848-2.07 3.784-2.026v1.491zM56.414 2.76V5.21h-1.558v2.047h1.558v5.098c0 1.424.267 2.404.846 3.027.512.556 1.357.89 2.359.89.868 0 1.58-.111 1.981-.267l-.044-2.092a4.045 4.045 0 0 1-1.069.133c-1.046 0-1.402-.69-1.402-2.003V7.256h2.604V5.21h-2.604V2.115l-2.671.645zM63.266 15.514c.802.446 1.981.757 3.295.757 2.871 0 4.407-1.424 4.407-3.383-.022-1.603-.935-2.604-2.894-3.317-1.38-.49-1.892-.823-1.892-1.513 0-.668.534-1.135 1.514-1.135.957 0 1.825.356 2.292.623l.535-1.937c-.624-.334-1.67-.645-2.872-.645-2.515 0-4.095 1.491-4.095 3.405-.023 1.27.868 2.427 2.982 3.161 1.336.468 1.781.846 1.781 1.58 0 .713-.534 1.203-1.736 1.203-.98 0-2.16-.401-2.783-.78l-.534 1.981zM72.723 15.514c.801.446 1.981.757 3.294.757 2.872 0 4.408-1.424 4.408-3.383-.023-1.603-.935-2.604-2.894-3.317-1.38-.49-1.892-.823-1.892-1.513 0-.668.534-1.135 1.514-1.135.957 0 1.825.356 2.292.623l.535-1.937c-.624-.334-1.67-.645-2.872-.645-2.515 0-4.095 1.491-4.095 3.405-.023 1.27.868 2.427 2.982 3.161 1.336.468 1.78.846 1.78 1.58 0 .713-.533 1.203-1.735 1.203-.98 0-2.16-.401-2.783-.78l-.534 1.981zM90.438 13.69a5.355 5.355 0 0 1-2.159.422c-1.87 0-3.317-1.269-3.317-3.494C84.94 8.636 86.187 7.1 88.28 7.1c.98 0 1.625.222 2.07.423l.49-2.048c-.623-.29-1.647-.512-2.65-.512-3.805 0-6.031 2.537-6.031 5.787 0 3.361 2.203 5.52 5.587 5.52 1.358 0 2.493-.29 3.071-.556l-.378-2.026zM93.017 16.049h2.76V9.57c0-.311.022-.6.111-.823.29-.824 1.047-1.536 2.115-1.536 1.514 0 2.092 1.18 2.092 2.76v6.077h2.738V9.66c0-3.472-1.936-4.696-3.784-4.696-.69 0-1.335.178-1.87.49A3.674 3.674 0 0 0 95.822 6.7h-.045V.245h-2.76v15.804zM105.924 16.049h2.738v-5.61a4.7 4.7 0 0 1 .089-.845c.245-1.225 1.135-2.07 2.448-2.07.334 0 .58.044.802.089V5.03a2.876 2.876 0 0 0-.646-.067c-1.157 0-2.426.779-2.96 2.315h-.09l-.088-2.07h-2.382c.067.979.089 2.025.089 3.494v7.346zM116.783 16.049V5.209h-2.76v10.84h2.76zM115.403.69c-.913 0-1.536.646-1.536 1.491 0 .824.601 1.47 1.514 1.47.957 0 1.558-.646 1.558-1.47-.022-.845-.601-1.491-1.536-1.491zM122.946 16.049V7.256h2.36V5.21h-2.383v-.557c0-1.335.468-2.47 1.826-2.47.49 0 .868.088 1.157.2l.2-2.115C125.661.111 125.083 0 124.348 0c-.935 0-2.026.29-2.827 1.046-.935.89-1.313 2.293-1.313 3.695v.468h-1.47v2.047h1.47v8.793h2.738zM127.929 2.76V5.21h-1.559v2.047h1.559v5.098c0 1.424.267 2.404.845 3.027.512.556 1.358.89 2.36.89.868 0 1.58-.111 1.98-.267l-.044-2.092a4.045 4.045 0 0 1-1.068.133c-1.046 0-1.402-.69-1.402-2.003V7.256h2.604V5.21H130.6V2.115l-2.671.645z"/>
        </g>
    </g>
</svg>
