<svg width="285" height="40" xmlns="http://www.w3.org/2000/svg"><defs><linearGradient x1="-4.542%" y1="96.044%" x2="104.861%" y2="3.989%" id="a"><stop stop-color="#002D59" offset="34%"/><stop stop-color="#002D59" stop-opacity=".89" offset="75%"/><stop stop-color="#002D59" stop-opacity=".8" offset="100%"/></linearGradient><linearGradient x1="3206%" y1="1220.008%" x2="5196%" y2="451.961%" id="b"><stop stop-color="#002D59" offset="34%"/><stop stop-color="#002D59" stop-opacity=".89" offset="75%"/><stop stop-color="#002D59" stop-opacity=".8" offset="100%"/></linearGradient><linearGradient x1="4006.968%" y1="3478%" x2="5849.466%" y2="924%" id="c"><stop stop-color="#002D59" offset="34%"/><stop stop-color="#002D59" stop-opacity=".89" offset="75%"/><stop stop-color="#002D59" stop-opacity=".8" offset="100%"/></linearGradient><linearGradient x1="6514.057%" y1="3560%" x2="8575.131%" y2="572%" id="d"><stop stop-color="#002D59" offset="34%"/><stop stop-color="#002D59" stop-opacity=".89" offset="75%"/><stop stop-color="#002D59" stop-opacity=".8" offset="100%"/></linearGradient><linearGradient x1="10684%" y1="2604.744%" x2="11467%" y2="1824.57%" id="e"><stop stop-color="#002D59" offset="34%"/><stop stop-color="#002D59" stop-opacity=".89" offset="75%"/><stop stop-color="#002D59" stop-opacity=".8" offset="100%"/></linearGradient><linearGradient x1="11807%" y1="1578.976%" x2="11992%" y2="1392.979%" id="f"><stop stop-color="#002D59" offset="34%"/><stop stop-color="#002D59" stop-opacity=".89" offset="75%"/><stop stop-color="#002D59" stop-opacity=".8" offset="100%"/></linearGradient></defs><g fill="none" fill-rule="evenodd"><path d="M0 32.985V2.39h7.672L14.8 15.056a59.487 59.487 0 014.4 9.303 73.508 73.508 0 01-.451-9.303V2.39h6.995v30.595h-7.641L10.8 20.328a49.015 49.015 0 01-4.103-8.349l-.369-1.138c.484 3.139.71 6.312.677 9.487v12.657H0z" fill="url(#a)" fill-rule="nonzero"/><path fill="url(#b)" fill-rule="nonzero" d="M36.974 28.38h9.898v4.615H31.169V7.713h15.56v4.595h-9.755v5.733h8.698v4.574h-8.698z"/><path d="M51.005 32.985L53.18 7.713h6.308c3.043 7.85 4.752 12.362 5.128 13.538a326.96 326.96 0 011.026 3.262 66.667 66.667 0 012.626-7.651l3.528-9.15h6.338l2.626 25.273h-5.795l-.933-9.785-.482-7.385c-.527 1.525-2.616 7.163-6.267 16.913h-3.415c-3.42-9.299-5.405-14.937-5.96-16.913 0 1.778-.112 4.24-.338 7.385l-.79 9.785h-5.774z" fill="url(#c)" fill-rule="nonzero"/><path d="M142.164 8.02h1.672l1.128 3.918 1.313 4.76a77.94 77.94 0 011.026-4.78l1.025-4.103h2.051l-2.82 11.057h-2.4c-1.224-4.28-1.945-6.869-2.164-7.764-.15.786-.879 3.374-2.185 7.764h-2.348l-2.965-11.016h2.185c.944 3.734 1.627 6.67 2.051 8.81a869.645 869.645 0 012.431-8.645zM154.041 17.22h4.513v1.693h-6.595V7.856h6.533v1.682h-4.451v3.006h3.908v1.671h-3.96zM160.626 7.856h3.918a4.103 4.103 0 012.759.841 2.708 2.708 0 011.025 2.165 2.564 2.564 0 01-.492 1.569c-.307.43-.753.74-1.262.882a2.759 2.759 0 011.457.861c.416.53.62 1.195.574 1.867a2.667 2.667 0 01-.923 2.051c-.71.594-1.62.894-2.544.841h-4.482l-.03-11.077zm2.05 1.693v2.974h1.252a2.667 2.667 0 001.672-.44c.351-.26.557-.672.554-1.109a1.262 1.262 0 00-.472-1.025 2.226 2.226 0 00-1.415-.38l-1.59-.02zm0 7.682h1.775c1.32 0 1.983-.503 1.99-1.508.007-1.005-.677-1.518-2.051-1.538h-1.693l-.02 3.046zM143.21 22.215v1.703h-2.81v9.354h-2.051v-9.354h-2.81v-1.703zM149.559 33.385a4.913 4.913 0 01-3.805-1.59 5.867 5.867 0 01-1.426-4.103 5.897 5.897 0 011.416-4.102 5.446 5.446 0 017.62 0 5.897 5.897 0 011.415 4.102 5.908 5.908 0 01-1.415 4.103 4.882 4.882 0 01-3.805 1.59zm0-9.467a2.656 2.656 0 00-2.205 1.026 4.338 4.338 0 00-.8 2.769c-.056.99.234 1.969.82 2.77a2.687 2.687 0 002.205 1.025c.854.03 1.671-.35 2.195-1.026a4.318 4.318 0 00.8-2.77 4.349 4.349 0 00-.8-2.768 2.656 2.656 0 00-2.225-1.026h.01zM161.426 33.385a4.913 4.913 0 01-3.805-1.59 5.867 5.867 0 01-1.426-4.103 5.897 5.897 0 011.415-4.102 5.446 5.446 0 017.62 0 5.897 5.897 0 011.416 4.102 5.908 5.908 0 01-1.415 4.103 4.882 4.882 0 01-3.805 1.59zm0-9.467a2.656 2.656 0 00-2.205 1.026 4.338 4.338 0 00-.8 2.769c-.056.99.234 1.969.82 2.77a2.687 2.687 0 002.205 1.025c.854.03 1.671-.35 2.195-1.026a4.318 4.318 0 00.8-2.77 4.349 4.349 0 00-.8-2.768 2.656 2.656 0 00-2.226-1.026h.01zM170.564 31.436h4.318v1.836h-6.38V22.215h2.052zM176.41 33.272V22.215h2.052v11.057h-2.052zm4.698-5.518l4.102 5.518h-2.605l-3.97-5.477 3.827-5.58h2.482l-3.836 5.539zM186.882 33.272V22.215h2.051v11.057zM198.349 22.215v1.703h-2.81v9.354h-2.052v-9.354h-2.81v-1.703z" fill="#D60725" fill-rule="nonzero"/><path d="M76.923 5.046l.041.062.03.061H76.852l.031-.061zM77.949 11.2l.04.062.032.061h-.144l.03-.061z"/><path d="M84.482 20.185a22.862 22.862 0 001.805 8.953 1.344 1.344 0 001.846.677l6.575-3.282a17.58 17.58 0 002.051 3.857l-.349.38a1.344 1.344 0 001.734 2.05l.4-.328a17.733 17.733 0 002.625 2.205l-.256.452a1.348 1.348 0 102.338 1.343l.257-.44c1.035.498 2.117.893 3.23 1.179l-.092.502a1.344 1.344 0 001.046 1.529h.236a1.354 1.354 0 001.323-1.118l.093-.503a17.95 17.95 0 003.446 0l.092.503c.114.643.67 1.113 1.323 1.118h.236a1.344 1.344 0 001.097-1.56l-.082-.492a17.282 17.282 0 003.231-1.18l.246.432a1.348 1.348 0 002.339-1.344l-.257-.441c.274-.185.544-.38.81-.585.647-.5 1.257-1.045 1.826-1.63l.452.359a1.344 1.344 0 101.733-2.052l-.39-.328a17.672 17.672 0 002.36-4.564h1.394c.742 0 1.344-.602 1.344-1.344v-8.718c0-.742-.602-1.343-1.344-1.343h-1.395a17.662 17.662 0 00-2.349-4.564l.39-.329a1.344 1.344 0 00-1.733-2.05l-.39.327c-.57-.585-1.18-1.13-1.826-1.63-.266-.205-.536-.4-.81-.585l.257-.441a1.364 1.364 0 00-2.37-1.354l-.246.43a17.282 17.282 0 00-3.24-1.2l.081-.491a1.349 1.349 0 00-2.656-.472l-.092.502a17.95 17.95 0 00-3.447 0l-.092-.502a1.349 1.349 0 10-2.656.472l.092.502c-1.113.286-2.195.681-3.23 1.18l-.257-.441a1.348 1.348 0 10-2.339 1.343l.257.452a17.733 17.733 0 00-2.626 2.205l-.4-.329A1.344 1.344 0 0096.39 9.55l.4.328a17.59 17.59 0 00-2.113 3.897l-6.472-3.292a1.344 1.344 0 00-1.856.667 22.862 22.862 0 00-1.867 9.036zm11.723 0a14.903 14.903 0 0129.262-3.97c.146.601.684 1.025 1.302 1.026h1.026v5.97h-1.026a1.344 1.344 0 00-1.302 1.025 14.903 14.903 0 01-29.262-4.082v.03zm-9.026 0a20.215 20.215 0 011.108-6.626l5.62 2.851a17.63 17.63 0 000 7.487l-5.65 2.831a20.226 20.226 0 01-1.078-6.543z" fill="url(#d)" fill-rule="nonzero"/><path d="M102.564 18.708c.006 5.518 4.472 9.993 9.99 10.01.742 0 1.343-.602 1.343-1.344v-8.666c0-.742-.601-1.344-1.343-1.344h-8.667a1.344 1.344 0 00-1.323 1.344zm2.82 1.343h5.847v5.846a7.333 7.333 0 01-5.877-5.835l.03-.01z" fill="url(#e)" fill-rule="nonzero"/><path d="M116.595 14.215a1.354 1.354 0 102.708.014 1.354 1.354 0 00-2.708-.014z" fill="url(#f)" fill-rule="nonzero"/></g></svg>