<svg xmlns="http://www.w3.org/2000/svg" width="285" height="39.999">
            <path fill="#002D59" d="M47.817 31.346c-2.03 0-3.632-.477-5.18-1.17-.322-1.393-.427-3.257-.533-5.184l1.227-.213c.693 2.618 1.656 5.182 4.864 5.182 2.24 0 3.575-1.392 3.575-3.472 0-5.504-9.132-4.274-9.132-10.632 0-2.879 2.35-5.499 6.517-5.499 1.387 0 2.885.375 4.378.908.106 1.121.216 2.403.267 4.647l-1.122.051c-.533-1.868-1.388-4.163-4.113-4.163-2.028 0-3.044 1.385-3.044 3.042 0 5.073 9.295 4.004 9.295 10.63 0 3.153-2.83 5.873-6.999 5.873M63.043 31.139c4.005-.483 7.21-3.529 7.21-8.014 0-2.777-1.871-5.661-5.181-5.661-.375 0-.749.051-1.125.264l-2.882 1.496v-2.029c-1.552.533-3.044 1.013-4.647 1.336v.908c1.816.162 1.87.213 1.87 2.083v14.26c0 1.817-.161 1.976-2.085 2.192v1.014h7.532v-1.014c-2.455-.217-2.67-.375-2.67-2.192V30.76c.428.162 1.122.323 1.978.379m-1.978-10.685c.692-.428 1.814-1.016 2.67-1.016 2.028 0 3.633 1.495 3.633 4.86 0 4.004-2.03 5.182-3.579 5.182-1.176 0-2.136-.482-2.724-1.12v-7.906zM80.398 20.771c-.318-.423-.742-.529-1.279-.529-.695 0-1.549.802-2.137 2.457v4.964c0 1.818.215 1.976 2.51 2.139v1.067h-7.263v-1.067c1.814-.163 2.029-.32 2.029-2.139v-6.037c0-1.812-.16-1.812-1.816-2.131v-.908c1.601-.322 3.15-.643 4.541-1.176v3.204h.051c.961-1.765 2.297-3.15 3.531-3.15 1.064 0 1.811.801 1.811 1.654-.001 1.229-1.283 2.295-1.978 1.652M83.767 30.869v-1.067c1.812-.163 2.078-.32 2.078-2.245V21.79c0-2.084-.154-2.084-1.92-2.295v-.908c1.654-.322 3.311-.698 4.648-1.176v10.146c0 1.925.156 2.083 2.027 2.245v1.067h-6.833zM87.078 14.578c-1.02 0-1.816-.8-1.816-1.812 0-1.069.797-1.872 1.816-1.872 1.066 0 1.867.803 1.867 1.872 0 1.011-.801 1.812-1.867 1.812M100.64 30.869v-1.067c1.5-.163 1.713-.32 1.713-2.032v-5.234c0-1.921-.854-3.096-2.455-3.096-1.016 0-2.193.746-2.992 1.495v6.835c0 1.712.154 1.87 1.652 2.032v1.067h-6.516v-1.067c1.814-.163 2.084-.32 2.084-2.032v-6.144c0-1.812-.105-1.921-1.709-2.131v-.908c1.604-.322 3.096-.643 4.488-1.176v2.135c.695-.588 2.723-2.082 4.271-2.082 2.402 0 3.9 1.654 3.9 4.113v6.192c0 1.712.268 1.87 1.867 2.032v1.067h-6.303zM117.306 29.801h-3.203c-1.279 0-1.76-.588-1.76-1.073 0-.478.533-1.225 1.172-1.437.371 0 .803.053.965.053 2.668 0 5.607-1.761 5.607-5.024 0-.907-.322-2.079-.752-2.669l1.551.162c.482-.268 1.072-1.178 1.281-1.656l-.209-.32c-1.285.16-2.674.32-4.062.37a6.645 6.645 0 00-3.098-.744c-2.562 0-5.662 1.867-5.662 5.344 0 1.92 1.334 3.628 2.779 4.111-.484.585-1.605 1.55-2.834 2.081-.104 1.71 1.498 2.618 2.404 2.941-2.508 1.92-3.1 2.829-3.1 4 0 1.817 1.924 4.06 5.557 4.06 4.164 0 7.746-2.885 7.746-6.301.001-2.991-2.509-3.898-4.382-3.898m-2.775-11.057c1.656 0 2.67 1.71 2.67 3.791 0 2.457-1.125 3.473-2.297 3.473-1.605 0-2.775-1.602-2.775-3.846s1.279-3.418 2.402-3.418m.695 19.597c-2.402 0-4.006-1.381-4.006-3.2 0-1.281 1.016-2.99 3.311-2.99 1.656 0 2.67.052 3.418.322.801.318 1.441 1.226 1.441 2.347 0 1.76-1.494 3.521-4.164 3.521M130.125 28.889c-2.082 0-4.162-1.492-4.27-5.017 3.363-.107 7.051-.375 7.533-.428.586-.11.742-.426.742-1.23 0-2.51-2.082-4.751-4.699-4.751-3.146 0-6.305 3.257-6.305 7.419 0 3.421 2.191 6.307 5.984 6.307.965 0 3.047-.534 4.805-2.721l-.691-.965c-1.066 1.066-1.922 1.386-3.099 1.386m-1.28-10.091c1.441 0 2.457 1.386 2.457 2.828 0 .536-.107.699-.693.699l-4.594.104c.318-2.296 1.604-3.631 2.83-3.631M144.228 20.771a1.827 1.827 0 00-1.283-.529c-.695 0-1.598.802-2.188 2.457v4.964c0 1.818.213 1.976 2.51 2.139v1.067h-7.32v-1.067c1.871-.163 2.033-.32 2.033-2.139v-6.037c0-1.812-.105-1.812-1.816-2.131v-.908c1.711-.322 3.203-.643 4.594-1.176v3.204h.051c.908-1.765 2.244-3.15 3.525-3.15 1.016 0 1.814.801 1.814 1.654 0 1.229-1.33 2.295-1.92 1.652M5.561 30.945v-1.55h2.137c.373-5.02 5.181-6.888 7.851-10.948H12.45c-1.496.535-3.738 3.847-3.738 5.768h-3.9l.053-1.601-1.281 1.063-3.419-3.95s-.16-.211-.16-.373.053-.265.053-.265l5.396-7.317.96-2.885 1.441-.534 1.497-2.086-.532-3.635c1.443-.528 2.832-.051 3.523.643a18.687 18.687 0 00-.054-2.243c2.564-.264 3.469 1.124 3.901 2.673.695.054 1.336.157 1.922.266a.867.867 0 01.802-.586c.481 0 .804.374.804.8v.214c1.123.375 2.187.907 3.148 1.496a.762.762 0 01.64-.32c.483 0 .804.374.804.8 0 .214-.053.374-.159.481.906.748 1.654 1.657 2.349 2.62a.943.943 0 01.372-.11c.481 0 .853.374.853.801 0 .319-.157.589-.426.696.533.963.962 2.033 1.283 3.15.054-.054.16-.054.214-.054.479 0 .801.375.801.801 0 .429-.268.75-.588.803a34.95 34.95 0 01.479 3.419c.482 0 .856.373.856.803 0 .482-.375.797-.803.853 0 1.119-.054 2.35-.16 3.526.428.05.75.424.75.85 0 .431-.373.807-.857.807h-.054c-.213 1.171-.426 2.347-.694 3.574h2.243v1.55H5.561zM16.51 5.361c.053.533.053.963.053 1.387 0 .641-.053 1.177-.053 1.177l-1.55-.265c.056-.538.163-4.169-1.12-4.97 0 0 0 1.922-.429 3.843l-1.441-.264c0-1.337-.587-1.87-1.387-2.242l.373 2.615-.909 1.333.43 1.23-2.833.961-.801 2.299L1.875 19.3l1.871 2.243 2.083-1.76.481.319v2.617h1.123c.478-1.87 2.028-4.06 3.47-5.127l-.803-.962 1.174-1.011 1.123 1.387s4.009 0 4.009-.053c.585-1.285.958-2.832.958-4.647h1.549c0 6.091-3.043 8.49-6.837 12.231-1.391 1.385-2.617 2.882-2.778 4.911h17.628c3.098-12.767-.531-22.916-10.416-24.087M4.228 19.941l-1.125-.425c.373-.534.589-1.282.589-1.922l.96.051c.054.693-.053 1.762-.424 2.296m4.161-6.942l-.16-1.977 2.51-.267.056.964-2.406 1.28z"></path>
            <path fill="#EF7B10" d="M5.572 35.699h25.157v3.099H5.572z"></path>
            <g fill="#002D59">
              <path d="M169.009 22.197c-.168-2.858-.395-6.366-.395-8.461h-.059a186.527 186.527 0 01-2.572 7.132l-4.02 10.355h-.934l-3.764-10.129c-1.076-2.971-1.895-5.263-2.461-7.358h-.057a209.426 209.426 0 01-.424 8.716l-.596 8.771h-1.328l1.383-19.071h1.559l4.104 11.007c.904 2.405 1.555 4.33 2.094 6.169h.084c.482-1.755 1.16-3.595 2.121-6.169l4.275-11.007h1.613l1.273 19.071h-1.332l-.564-9.026zM174.646 24.291c0 4.329 2.377 6.056 5.182 6.056 1.977 0 2.998-.396 3.762-.764l.34 1.047c-.51.284-1.896.877-4.273.877-3.906 0-6.338-2.829-6.338-6.819 0-4.527 2.604-7.358 6.111-7.358 4.441 0 5.291 4.188 5.291 6.142 0 .368 0 .565-.057.82h-10.018zm8.658-1.076c.029-1.895-.762-4.753-4.043-4.753-3 0-4.275 2.66-4.529 4.753h8.572zM198.306 11.104v16.979c0 .991.029 2.179.113 3.14h-1.215l-.113-2.575h-.059c-.707 1.499-2.318 2.887-4.836 2.887-3.369 0-5.859-2.801-5.859-6.848-.027-4.527 2.773-7.358 6.111-7.358 2.35 0 3.85 1.217 4.443 2.406h.057v-8.631h1.358zm-1.357 11.914c0-.368-.029-.849-.143-1.245-.453-1.812-2.064-3.311-4.27-3.311-2.973 0-4.84 2.576-4.84 6.083 0 3.056 1.529 5.858 4.752 5.858 1.953 0 3.791-1.301 4.357-3.538.113-.34.143-.706.143-1.133v-2.714zM202.781 14.924c-.623 0-1.047-.537-1.047-1.16s.482-1.188 1.105-1.188c.621 0 1.074.537 1.074 1.188 0 .623-.424 1.16-1.104 1.16h-.028zm-.623 16.299V17.641h1.361v13.582h-1.361zM205.527 30.404l7.33-9.649a89.123 89.123 0 011.555-1.953v-.057h-8.289v-1.104h9.932l-.029.905-7.328 9.649c-.48.624-.934 1.247-1.443 1.868v.056h8.83v1.103h-10.557v-.818zM218.689 14.924c-.623 0-1.047-.537-1.047-1.16s.48-1.188 1.102-1.188c.623 0 1.078.537 1.078 1.188 0 .623-.424 1.16-1.104 1.16h-.029zm-.623 16.299V17.641h1.359v13.582h-1.359zM223.275 20.895c0-1.245-.029-2.179-.113-3.254h1.273l.084 2.433h.055c.738-1.527 2.465-2.745 4.672-2.745 1.301 0 4.754.651 4.754 5.745v8.149h-1.359v-8.035c0-2.49-.963-4.726-3.762-4.726-1.898 0-3.537 1.358-4.078 3.141a4.847 4.847 0 00-.168 1.188v8.432h-1.357V20.895z"></path>
            </g>
          </svg>