<svg width="24" height="24" viewBox="0 0 24 24" xmlns="http://www.w3.org/2000/svg">
    <path d="M21.711 21.262c.379.396.388 1.05.01 1.447a.955.955 0 0 1-1.382-.009l-4.073-4.267c-1.61 1.37-3.664 2.192-5.9 2.192C5.192 20.625 1 16.232 1 10.812 1 5.393 5.193 1 10.365 1c5.173 0 9.366 4.393 9.366 9.812 0 2.344-.784 4.495-2.092 6.183l4.072 4.267zm-11.346-2.039c4.434 0 8.028-3.766 8.028-8.41 0-4.646-3.594-8.411-8.028-8.411-4.433 0-8.027 3.765-8.027 8.41s3.594 8.411 8.027 8.411z" fill="#000" fill-rule="evenodd"/>
</svg>
