<?xml version="1.0" encoding="utf-8"?>
<!-- Generator: Adobe Illustrator 25.3.0, SVG Export Plug-In . SVG Version: 6.00 Build 0)  -->
<svg version="1.1" id="Layer_1" xmlns="http://www.w3.org/2000/svg" xmlns:xlink="http://www.w3.org/1999/xlink" x="0px" y="0px"
	 viewBox="0 0 23.7 30" style="enable-background:new 0 0 23.7 30;" xml:space="preserve">
<style type="text/css">
	.st0{fill:#002D59;}
	.st1{fill:#EF7B10;}
	.st2{display:none;}
	.st3{display:inline;fill:#002D59;}
</style>
<g id="Header-_x2F_-Main-and-Menu-_x2F_-XL-low" transform="translate(-410.000000, -15.000000)">
	<g id="SMED-Logo" transform="translate(410.005908, 5.000000)">
		<path id="Shape" class="st0" d="M4.3,33v-1.2h1.6c0.3-3.9,4-5.3,6-8.4H9.6c-1.2,0.4-2.9,3-2.9,4.4h-3l0-1.2l-1,0.8l-2.6-3
			c0,0-0.1-0.2-0.1-0.3s0-0.2,0-0.2l4.2-5.6l0.7-2.2L6,15.7l1.2-1.6l-0.4-2.8c1.1-0.4,2.2,0,2.7,0.5c0-0.6,0-1.2,0-1.7
			c2-0.2,2.7,0.9,3,2.1c0.5,0,1,0.1,1.5,0.2c0.1-0.3,0.3-0.4,0.6-0.5c0.4,0,0.6,0.3,0.6,0.6v0.2c0.9,0.3,1.7,0.7,2.4,1.2
			c0.1-0.2,0.3-0.3,0.5-0.2c0.4,0,0.6,0.3,0.6,0.6c0,0.2,0,0.3-0.1,0.4c0.7,0.6,1.3,1.3,1.8,2c0.1,0,0.2-0.1,0.3-0.1
			c0.4,0,0.7,0.3,0.7,0.6c0,0.2-0.1,0.5-0.3,0.5c0.4,0.7,0.7,1.6,1,2.4c0,0,0.1,0,0.2,0c0.4,0,0.6,0.3,0.6,0.6
			c0,0.3-0.2,0.6-0.5,0.6c0.2,0.9,0.3,1.7,0.4,2.6c0.4,0,0.7,0.3,0.7,0.6c0,0.4-0.3,0.6-0.6,0.7c0,0.9,0,1.8-0.1,2.7
			c0.3,0,0.6,0.3,0.6,0.7c0,0.3-0.3,0.6-0.7,0.6h0c-0.2,0.9-0.3,1.8-0.5,2.7h1.7V33H4.3z M12.7,13.4c0,0.4,0,0.7,0,1.1
			c0,0.5,0,0.9,0,0.9l-1.2-0.2c0-0.4,0.1-3.2-0.9-3.8c0,0,0,1.5-0.3,3l-1.1-0.2c0-1-0.5-1.4-1.1-1.7l0.3,2l-0.7,1l0.3,0.9l-2.2,0.7
			l-0.6,1.8l-3.8,5.3l1.4,1.7l1.6-1.4l0.4,0.2v2h0.9c0.4-1.4,1.6-3.1,2.7-3.9L7.8,22l0.9-0.8l0.9,1.1c0,0,3.1,0,3.1,0
			c0.4-1,0.7-2.2,0.7-3.6h1.2c0,4.7-2.3,6.5-5.3,9.4c-1.1,1.1-2,2.2-2.1,3.8h13.6C23.1,22.1,20.3,14.3,12.7,13.4 M3.2,24.6l-0.9-0.3
			c0.3-0.4,0.5-1,0.5-1.5l0.7,0C3.6,23.3,3.5,24.2,3.2,24.6 M6.4,19.2l-0.1-1.5l1.9-0.2l0,0.7L6.4,19.2L6.4,19.2z"/>
		<polygon id="Path" class="st1" points="4.3,36.7 23.6,36.7 23.6,39.1 4.3,39.1 		"/>
		<g id="Group" transform="translate(117.224811, 7.772562)" class="st2">
			<path id="Shape_1_" class="st3" d="M12.8,18.5c-0.1-2.2-0.3-4.9-0.3-6.5h0c-0.6,1.8-1.3,3.7-2,5.5l-3.1,8H6.6l-2.9-7.8
				c-0.8-2.3-1.5-4-1.9-5.7h0c-0.1,2.2-0.2,4.5-0.3,6.7L1,25.5H0l1.1-14.7h1.2l3.2,8.5C6.1,21.1,6.6,22.6,7,24h0.1
				c0.4-1.3,0.9-2.8,1.6-4.7l3.3-8.5h1.2l1,14.7h-1L12.8,18.5L12.8,18.5z M17.1,20.1c0,3.3,1.8,4.7,4,4.7c1.5,0,2.3-0.3,2.9-0.6
				l0.3,0.8c-0.4,0.2-1.5,0.7-3.3,0.7c-3,0-4.9-2.2-4.9-5.2c0-3.5,2-5.7,4.7-5.7c3.4,0,4.1,3.2,4.1,4.7c0,0.3,0,0.4,0,0.6L17.1,20.1
				L17.1,20.1z M23.8,19.3c0-1.5-0.6-3.7-3.1-3.7c-2.3,0-3.3,2-3.5,3.7H23.8z M35.3,10v13.1c0,0.8,0,1.7,0.1,2.4h-0.9l-0.1-2h0
				c-0.5,1.2-1.8,2.2-3.7,2.2c-2.6,0-4.5-2.2-4.5-5.3c0-3.5,2.1-5.7,4.7-5.7c1.8,0,3,0.9,3.4,1.9h0V10H35.3L35.3,10z M34.3,19.2
				c0-0.3,0-0.7-0.1-1c-0.3-1.4-1.6-2.5-3.3-2.5c-2.3,0-3.7,2-3.7,4.7c0,2.4,1.2,4.5,3.7,4.5c1.5,0,2.9-1,3.4-2.7
				c0.1-0.3,0.1-0.5,0.1-0.9L34.3,19.2L34.3,19.2z M38.8,12.9c-0.5,0-0.8-0.4-0.8-0.9s0.4-0.9,0.8-0.9c0.5,0,0.8,0.4,0.8,0.9
				C39.6,12.5,39.3,12.9,38.8,12.9L38.8,12.9z M38.3,25.5V15h1v10.4H38.3z M40.9,24.8l5.6-7.4c0.4-0.5,0.8-1,1.2-1.5v0h-6.4V15H49
				l0,0.7l-5.6,7.4c-0.4,0.5-0.7,1-1.1,1.4v0H49v0.8h-8.1L40.9,24.8L40.9,24.8z M51,12.9c-0.5,0-0.8-0.4-0.8-0.9s0.4-0.9,0.8-0.9
				c0.5,0,0.8,0.4,0.8,0.9C51.9,12.5,51.5,12.9,51,12.9L51,12.9z M50.5,25.5V15h1v10.4H50.5z M54.5,17.5c0-1,0-1.7-0.1-2.5h1
				l0.1,1.9h0c0.6-1.2,1.9-2.1,3.6-2.1c1,0,3.7,0.5,3.7,4.4v6.3h-1v-6.2c0-1.9-0.7-3.6-2.9-3.6c-1.5,0-2.7,1-3.1,2.4
				c-0.1,0.3-0.1,0.6-0.1,0.9v6.5h-1L54.5,17.5L54.5,17.5z"/>
		</g>
	</g>
</g>
</svg>
